
<svg width="46px" height="32px" viewBox="0 0 46 31" version="1.1" xmlns="http://www.w3.org/2000/svg" xmlns:xlink="http://www.w3.org/1999/xlink">
    <g id="About" stroke="none" stroke-width="1" fill="none" fill-rule="evenodd">
        <g id="iPhone-13" transform="translate(-268.000000, -780.000000)">
            <g id="music" transform="translate(282.000000, 780.000000)" fill="#B3B3B3" fill-rule="nonzero">
                <path d="M12.7278761,19.0673178 L12.7278761,1.54968448 C12.7278761,0.693817374 13.444526,0 14.3285585,0 L14.3733776,0 C15.2574101,0 15.97406,0.693817374 15.97406,1.54968448 L15.97406,23.3459967 C16.2893945,26.3973254 13.701091,29.5292378 9.77301629,30.6186659 C5.46718055,31.8150224 1.180553,30.102621 0.200935355,26.7940446 C-0.778682292,23.4854683 1.9184676,19.8344117 6.22590402,18.6380552 C8.5789072,17.9856381 10.923907,18.1994945 12.7278761,19.0673178 Z M8.88623822,27.6231258 C11.604197,26.8684295 13.1200433,24.8181969 12.6798556,23.3304998 C12.2380672,21.8412531 9.83064086,20.878899 7.11268209,21.6335953 C4.39472332,22.3882917 2.87887706,24.4385242 3.31906473,25.927771 C3.76085308,27.4154681 6.16827946,28.3778222 8.88623822,27.6231258 Z" id="Shape"></path>
            </g>
            <polyline id="Path-2" stroke="#B3B3B3" stroke-width="3" stroke-linecap="round" stroke-linejoin="round" points="274 808 270 804 274 800 270 796 274 792 270 788 274 784"></polyline>
            <polyline id="Path-2" stroke="#B3B3B3" stroke-width="3" stroke-linecap="round" stroke-linejoin="round" transform="translate(310.000000, 796.000000) scale(-1, 1) translate(-310.000000, -796.000000) " points="312 808 308 804 312 800 308 796 312 792 308 788 312 784"></polyline>
        </g>
    </g>
</svg>